<svg width="97" height="97" viewBox="0 0 97 97" fill="none" xmlns="http://www.w3.org/2000/svg">
<rect opacity="0.1" x="0.514404" y="0.678284" width="95.971" height="95.971" rx="26.9187" fill="#2382C5" fill-opacity="0.7"/>
<g clip-path="url(#clip0_59_679)">
<path d="M30.952 65.5262C28.6278 63.2813 26.7738 60.596 25.4984 57.627C24.223 54.658 23.5517 51.4647 23.5236 48.2334C23.4955 45.0022 24.1113 41.7977 25.3349 38.8069C26.5585 35.8162 28.3655 33.0991 30.6504 30.8142C32.9353 28.5292 35.6524 26.7223 38.6432 25.4986C41.6339 24.275 44.8384 23.6593 48.0697 23.6874C51.3009 23.7155 54.4942 24.3868 57.4633 25.6622C60.4323 26.9376 63.1176 28.7915 65.3625 31.1158C69.7954 35.7055 72.2482 41.8527 72.1928 48.2334C72.1374 54.6141 69.578 60.7178 65.066 65.2298C60.554 69.7418 54.4504 72.3011 48.0697 72.3566C41.689 72.412 35.5418 69.9591 30.952 65.5262ZM51.5642 48.321L58.4512 41.4341L55.0199 38.0028L48.1572 44.8897L41.2703 38.0028L37.839 41.4341L44.7259 48.321L37.839 55.208L41.2703 58.6393L48.1572 51.7523L55.0442 58.6393L58.4755 55.208L51.5886 48.321H51.5642Z" fill="#DC0000"/>
</g>
<defs>
<clipPath id="clip0_59_679">
<rect width="48.671" height="48.671" fill="white" transform="translate(23.8218 23.9855)"/>
</clipPath>
</defs>
</svg>
