<svg width="42" height="42" viewBox="0 0 42 42" fill="none" xmlns="http://www.w3.org/2000/svg">
<g id="mdi:reload">
<path id="Vector" d="M3.5 21C3.5 25.1772 5.15937 29.1832 8.11307 32.1369C11.0668 35.0906 15.0728 36.75 19.25 36.75C23.4325 36.75 27.44 35.105 30.45 32.2L27.825 29.575C26.7229 30.7413 25.3933 31.6691 23.9184 32.3012C22.4435 32.9333 20.8546 33.2562 19.25 33.25C8.33 33.25 2.87 20.055 10.5875 12.3375C18.305 4.62 31.5 10.0975 31.5 21H26.25L33.25 28H33.425L40.25 21H35C35 16.8228 33.3406 12.8168 30.3869 9.86307C27.4332 6.90937 23.4272 5.25 19.25 5.25C15.0728 5.25 11.0668 6.90937 8.11307 9.86307C5.15937 12.8168 3.5 16.8228 3.5 21Z" fill="#8D8D8D"/>
</g>
</svg>
