<svg width="127" height="37" viewBox="0 0 127 37" fill="none" xmlns="http://www.w3.org/2000/svg">
<g id="qrg-logo-color 1">
<g id="Group">
<path id="Vector" d="M20.1 26.5L26 28.4L24.8 33.8L10.6 28.7C4.8 26.6 1.8 22.6 1.8 15.9C1.8 7.89997 6.7 2.59998 14 2.59998C21.3 2.59998 26.1 7.59997 26.1 15.4C26.1 20.7 23.8 24.5 20.1 26.5ZM13.9 7.49998C10.2 7.49998 8.1 10.9 8.1 15.8C8.1 20.7 10.3 24.2 13.9 24.2C17.6 24.2 19.7 20.7 19.7 15.8C19.7 10.9 17.6 7.49998 13.9 7.49998Z" fill="#2382C5"/>
</g>
<g id="Group_2">
<g id="Group_3">
<path id="Vector_2" d="M39.2 35.2V1.89998L40.7 1.59998V35L39.2 35.2Z" fill="#58595B"/>
</g>
</g>
<g id="Group_4">
<g id="Group_5">
<path id="Vector_3" d="M87.1 35.2V1.89998L88.6 1.59998V35L87.1 35.2Z" fill="#58595B"/>
</g>
</g>
<g id="Group_6">
<path id="Vector_4" d="M68.2 28.6L62.6 19.6H61V28.3H54.7V3H63.6C69.7 3 73.3 5.8 73.3 11C73.3 14.5 71.5 16.9 68.5 18.2L74.7 27.5L68.2 28.6ZM63.1 7.7H61.1V15.1H63C65.7 15.1 67.3 13.8 67.3 11.3C67.3 9 65.8 7.7 63.1 7.7Z" fill="#2382C5"/>
</g>
<g id="Group_7">
<path id="Vector_5" d="M114.2 28.9C106.2 28.9 101.7 23.6 101.7 15.8C101.7 7.89998 106.5 2.59998 114.3 2.59998C117.4 2.59998 120 3.29998 122.1 4.49998L121.3 9.99998C119.4 8.79998 117.2 7.79998 114.5 7.79998C110.1 7.79998 108 11 108 15.8C108 20.6 110.2 23.9 114.6 23.9C116 23.9 117 23.6 118 23.1V18.6H113.6L112.9 13.9H123.5V26.3C120.9 28 117.7 28.9 114.2 28.9Z" fill="#2382C5"/>
</g>
</g>
</svg>
