<svg width="26" height="26" viewBox="0 0 26 26" fill="none" xmlns="http://www.w3.org/2000/svg">
<g id="solar:diploma-verified-bold">
<g id="Group">
<path id="Vector" fill-rule="evenodd" clip-rule="evenodd" d="M2.0948 12.948V8.75836C2.0948 5.79632 2.0948 4.31425 3.01546 3.39463C3.93508 2.47397 5.41715 2.47397 8.37919 2.47397H16.7584C19.7204 2.47397 21.2025 2.47397 22.1221 3.39463C23.0428 4.31425 23.0428 5.79632 23.0428 8.75836V12.948C23.0428 15.91 23.0428 17.3921 22.1221 18.3117C21.4455 18.9894 20.4651 19.1685 18.8144 19.2156C18.8109 18.422 18.5263 17.6553 18.0111 17.0517C17.9808 17.0163 17.9625 16.9723 17.9587 16.926C17.8953 16.1292 17.5501 15.3811 16.985 14.8159C16.4199 14.2506 15.6719 13.9051 14.8752 13.8414C14.8288 13.8377 14.7848 13.8193 14.7495 13.789C14.1411 13.2706 13.368 12.9859 12.5688 12.9859C11.7695 12.9859 10.9964 13.2706 10.3881 13.789C10.3528 13.8193 10.3088 13.8377 10.2624 13.8414C9.46549 13.9049 8.71726 14.2502 8.15197 14.8155C7.58667 15.3808 7.2413 16.1291 7.17783 16.926C7.1741 16.9724 7.15577 17.0164 7.12546 17.0517C6.61061 17.6554 6.32635 18.4221 6.32315 19.2156C4.67245 19.1685 3.69208 18.9894 3.01546 18.3117C2.0948 17.3921 2.0948 15.91 2.0948 12.948ZM8.64104 6.66357C8.64104 6.45523 8.72381 6.25542 8.87113 6.1081C9.01845 5.96078 9.21825 5.87802 9.42659 5.87802H15.711C15.9193 5.87802 16.1191 5.96078 16.2665 6.1081C16.4138 6.25542 16.4965 6.45523 16.4965 6.66357C16.4965 6.87191 16.4138 7.07171 16.2665 7.21903C16.1191 7.36635 15.9193 7.44912 15.711 7.44912H9.42659C9.21825 7.44912 9.01845 7.36635 8.87113 7.21903C8.72381 7.07171 8.64104 6.87191 8.64104 6.66357ZM7.3318 9.54391C7.12345 9.54391 6.92365 9.62668 6.77633 9.774C6.62901 9.92132 6.54625 10.1211 6.54625 10.3295C6.54625 10.5378 6.62901 10.7376 6.77633 10.8849C6.92365 11.0323 7.12345 11.115 7.3318 11.115H17.8058C18.0141 11.115 18.2139 11.0323 18.3613 10.8849C18.5086 10.7376 18.5913 10.5378 18.5913 10.3295C18.5913 10.1211 18.5086 9.92132 18.3613 9.774C18.2139 9.62668 18.0141 9.54391 17.8058 9.54391H7.3318Z" fill="#2382C5"/>
<path id="Vector_2" fill-rule="evenodd" clip-rule="evenodd" d="M13.7314 14.9851C13.4072 14.7085 12.995 14.5565 12.5688 14.5565C12.1426 14.5565 11.7304 14.7085 11.4062 14.9851C11.1193 15.2296 10.7627 15.3773 10.3871 15.4072C9.96231 15.4411 9.56353 15.6252 9.26233 15.9266C8.96113 16.228 8.77724 16.6269 8.7437 17.0517C8.71437 17.4266 8.56564 17.7828 8.3216 18.0708C8.0455 18.3948 7.89386 18.8066 7.89386 19.2324C7.89386 19.6581 8.0455 20.0699 8.3216 20.3939C8.56669 20.6809 8.71437 21.0381 8.7437 21.413C8.77728 21.838 8.96131 22.237 9.26272 22.5384C9.56414 22.8398 9.96318 23.0239 10.3881 23.0575C10.7631 23.0868 11.1202 23.2345 11.4072 23.4785C11.7313 23.7546 12.1431 23.9062 12.5688 23.9062C12.9945 23.9062 13.4063 23.7546 13.7304 23.4785C14.0172 23.2341 14.3738 23.0864 14.7495 23.0564C15.1743 23.0229 15.5732 22.839 15.8746 22.5378C16.176 22.2366 16.3601 21.8378 16.3939 21.413C16.4236 21.0375 16.5709 20.6809 16.815 20.3939C17.0913 20.0698 17.2431 19.6578 17.2431 19.2318C17.2431 18.8059 17.0913 18.3939 16.815 18.0697C16.5705 17.7829 16.4228 17.4263 16.3929 17.0506C16.3591 16.626 16.1751 16.2274 15.8739 15.9262C15.5727 15.625 15.1741 15.441 14.7495 15.4072C14.3738 15.3773 14.0183 15.2296 13.7314 14.9851ZM14.6762 18.7589C14.7527 18.6888 14.8146 18.6042 14.8582 18.51C14.9018 18.4158 14.9264 18.314 14.9304 18.2102C14.9344 18.1065 14.9178 18.003 14.8816 17.9058C14.8454 17.8085 14.7903 17.7193 14.7194 17.6435C14.6486 17.5677 14.5634 17.5066 14.4688 17.4639C14.3742 17.4212 14.2721 17.3976 14.1683 17.3946C14.0646 17.3916 13.9612 17.4091 13.8643 17.4463C13.7674 17.4834 13.6788 17.5394 13.6036 17.611L11.8964 19.2051L11.534 18.8679C11.3813 18.728 11.1797 18.654 10.9728 18.662C10.7659 18.67 10.5706 18.7594 10.4292 18.9107C10.2879 19.062 10.212 19.2629 10.218 19.4699C10.224 19.6768 10.3115 19.873 10.4614 20.0158L11.3591 20.8537C11.5045 20.9896 11.6962 21.0652 11.8953 21.0652C12.0944 21.0652 12.2861 20.9896 12.4316 20.8537L14.6762 18.7589Z" fill="#2382C5"/>
</g>
</g>
</svg>
