<svg width="98" height="97" viewBox="0 0 98 97" fill="none" xmlns="http://www.w3.org/2000/svg">
<g id="Group 37328">
<rect id="Rectangle 4298" opacity="0.1" x="0.913086" y="0.730438" width="96.1739" height="96.1739" rx="26.9756" fill="#2382C5" fill-opacity="0.7"/>
<path id="Vector" d="M24.9565 71.9132L28.5939 68.2758L32.2313 71.9132L35.8687 68.2758L39.5061 71.9132L43.3375 68.0818C43.677 68.5426 44.065 68.9548 44.4772 69.367C47.6585 72.5008 51.9464 74.255 56.412 74.2494C60.8776 74.2439 65.1612 72.4792 68.3347 69.3375C71.5083 66.1959 73.3162 61.9303 73.3668 57.465C73.4175 52.9997 71.7067 48.6943 68.6052 45.4815V23.4147L64.9678 27.0521L61.3304 23.4147L57.6931 27.0521L54.0557 23.4147L50.4183 27.0521L46.7809 23.4147L43.1435 27.0521L39.5061 23.4147L35.8687 27.0521L32.2313 23.4147L28.5939 27.0521L24.9565 23.4147V71.9132ZM68.2415 57.3636C68.2415 58.9156 67.9505 60.4433 67.3928 61.874C66.7623 63.2805 65.8893 64.6384 64.7981 65.6811C63.7554 66.7724 62.3974 67.6453 60.991 68.2758C59.5602 68.8335 58.0325 69.1245 56.4806 69.1245C49.9818 69.1245 44.7197 63.8624 44.7197 57.3636C44.7197 54.2355 45.9564 51.3013 48.1631 49.0461C50.4183 46.8395 53.3524 45.6027 56.4806 45.6027C62.9551 45.6027 68.2415 50.8648 68.2415 57.3636ZM54.0557 59.0368V50.0889H57.6931V56.9272L63.6099 60.3463L61.7912 63.4987L54.0557 59.0368Z" fill="#18851E"/>
</g>
</svg>
